<svg xmlns="http://www.w3.org/2000/svg" xmlns:xlink="http://www.w3.org/1999/xlink" width="175" zoomAndPan="magnify" viewBox="0 0 131.25 42.75" height="57" preserveAspectRatio="xMidYMid meet" version="1.0"><defs><g/></defs><g fill="#000000" fill-opacity="1"><g transform="translate(52.360419, 37.648549)"><g><path d="M 0.875 0 L 0.875 -7.46875 L 3.453125 -7.46875 L 3.453125 -6.390625 L 3.484375 -6.390625 C 3.503906 -6.429688 3.535156 -6.476562 3.578125 -6.53125 C 3.617188 -6.59375 3.710938 -6.695312 3.859375 -6.84375 C 4.003906 -6.988281 4.160156 -7.117188 4.328125 -7.234375 C 4.492188 -7.347656 4.707031 -7.453125 4.96875 -7.546875 C 5.226562 -7.640625 5.492188 -7.6875 5.765625 -7.6875 C 6.046875 -7.6875 6.320312 -7.644531 6.59375 -7.5625 C 6.863281 -7.488281 7.0625 -7.414062 7.1875 -7.34375 L 7.390625 -7.21875 L 6.3125 -5.03125 C 6 -5.3125 5.554688 -5.453125 4.984375 -5.453125 C 4.671875 -5.453125 4.398438 -5.378906 4.171875 -5.234375 C 3.953125 -5.097656 3.796875 -4.929688 3.703125 -4.734375 C 3.609375 -4.546875 3.539062 -4.382812 3.5 -4.25 C 3.46875 -4.113281 3.453125 -4.007812 3.453125 -3.9375 L 3.453125 0 Z M 0.875 0 "/></g></g></g><g fill="#000000" fill-opacity="1"><g transform="translate(59.609884, 37.648549)"><g><path d="M 1.375 -0.921875 C 0.675781 -1.679688 0.328125 -2.613281 0.328125 -3.71875 C 0.328125 -4.832031 0.675781 -5.769531 1.375 -6.53125 C 2.082031 -7.300781 2.972656 -7.6875 4.046875 -7.6875 C 5.035156 -7.6875 5.851562 -7.375 6.5 -6.75 L 6.5 -7.46875 L 9.078125 -7.46875 L 9.078125 0 L 6.53125 0 L 6.53125 -0.84375 L 6.5 -0.84375 C 5.851562 -0.132812 5.035156 0.21875 4.046875 0.21875 C 2.972656 0.21875 2.082031 -0.160156 1.375 -0.921875 Z M 3.578125 -4.984375 C 3.242188 -4.660156 3.078125 -4.238281 3.078125 -3.71875 C 3.078125 -3.207031 3.234375 -2.789062 3.546875 -2.46875 C 3.867188 -2.144531 4.289062 -1.984375 4.8125 -1.984375 C 5.320312 -1.984375 5.738281 -2.144531 6.0625 -2.46875 C 6.382812 -2.800781 6.546875 -3.222656 6.546875 -3.734375 C 6.546875 -4.242188 6.378906 -4.660156 6.046875 -4.984375 C 5.710938 -5.316406 5.300781 -5.484375 4.8125 -5.484375 C 4.320312 -5.484375 3.910156 -5.316406 3.578125 -4.984375 Z M 3.578125 -4.984375 "/></g></g></g><g fill="#000000" fill-opacity="1"><g transform="translate(69.552428, 37.648549)"><g><path d="M 4.84375 -5.578125 C 4.363281 -5.578125 3.945312 -5.394531 3.59375 -5.03125 C 3.25 -4.675781 3.078125 -4.25 3.078125 -3.75 C 3.078125 -3.226562 3.25 -2.785156 3.59375 -2.421875 C 3.945312 -2.066406 4.363281 -1.890625 4.84375 -1.890625 C 5.082031 -1.890625 5.304688 -1.914062 5.515625 -1.96875 C 5.722656 -2.03125 5.875 -2.09375 5.96875 -2.15625 L 6.109375 -2.25 L 6.96875 -0.453125 C 6.90625 -0.398438 6.8125 -0.335938 6.6875 -0.265625 C 6.570312 -0.191406 6.296875 -0.09375 5.859375 0.03125 C 5.429688 0.15625 4.96875 0.21875 4.46875 0.21875 C 3.375 0.21875 2.410156 -0.164062 1.578125 -0.9375 C 0.742188 -1.707031 0.328125 -2.632812 0.328125 -3.71875 C 0.328125 -4.800781 0.742188 -5.734375 1.578125 -6.515625 C 2.410156 -7.296875 3.375 -7.6875 4.46875 -7.6875 C 4.96875 -7.6875 5.425781 -7.628906 5.84375 -7.515625 C 6.257812 -7.398438 6.554688 -7.285156 6.734375 -7.171875 L 6.96875 -6.984375 L 6.109375 -5.234375 C 5.785156 -5.460938 5.363281 -5.578125 4.84375 -5.578125 Z M 4.84375 -5.578125 "/></g></g></g><g fill="#000000" fill-opacity="1"><g transform="translate(76.699996, 37.648549)"><g><path d="M 9.40625 -7.46875 L 5.859375 -3.90625 L 9.75 0 L 6.4375 0 L 3.453125 -2.984375 L 3.453125 0 L 0.875 0 L 0.875 -12.53125 L 3.453125 -12.53125 L 3.453125 -4.859375 L 6.0625 -7.46875 Z M 9.40625 -7.46875 "/></g></g></g><g fill="#000000" fill-opacity="1"><g transform="translate(86.103922, 37.648549)"><g><path d="M 8.4375 -3.375 L 3.015625 -3.375 C 3.015625 -2.851562 3.179688 -2.460938 3.515625 -2.203125 C 3.859375 -1.953125 4.226562 -1.828125 4.625 -1.828125 C 5.039062 -1.828125 5.367188 -1.882812 5.609375 -2 C 5.859375 -2.113281 6.140625 -2.335938 6.453125 -2.671875 L 8.3125 -1.734375 C 7.539062 -0.429688 6.25 0.21875 4.4375 0.21875 C 3.3125 0.21875 2.34375 -0.164062 1.53125 -0.9375 C 0.726562 -1.707031 0.328125 -2.632812 0.328125 -3.71875 C 0.328125 -4.8125 0.726562 -5.742188 1.53125 -6.515625 C 2.34375 -7.296875 3.3125 -7.6875 4.4375 -7.6875 C 5.625 -7.6875 6.585938 -7.34375 7.328125 -6.65625 C 8.078125 -5.976562 8.453125 -5.003906 8.453125 -3.734375 C 8.453125 -3.554688 8.445312 -3.4375 8.4375 -3.375 Z M 3.09375 -4.8125 L 5.921875 -4.8125 C 5.867188 -5.195312 5.71875 -5.492188 5.46875 -5.703125 C 5.21875 -5.910156 4.898438 -6.015625 4.515625 -6.015625 C 4.085938 -6.015625 3.742188 -5.898438 3.484375 -5.671875 C 3.234375 -5.453125 3.101562 -5.164062 3.09375 -4.8125 Z M 3.09375 -4.8125 "/></g></g></g><g fill="#000000" fill-opacity="1"><g transform="translate(94.88189, 37.648549)"><g><path d="M 0.875 0 L 0.875 -7.46875 L 3.453125 -7.46875 L 3.453125 -6.390625 L 3.484375 -6.390625 C 3.503906 -6.429688 3.535156 -6.476562 3.578125 -6.53125 C 3.617188 -6.59375 3.710938 -6.695312 3.859375 -6.84375 C 4.003906 -6.988281 4.160156 -7.117188 4.328125 -7.234375 C 4.492188 -7.347656 4.707031 -7.453125 4.96875 -7.546875 C 5.226562 -7.640625 5.492188 -7.6875 5.765625 -7.6875 C 6.046875 -7.6875 6.320312 -7.644531 6.59375 -7.5625 C 6.863281 -7.488281 7.0625 -7.414062 7.1875 -7.34375 L 7.390625 -7.21875 L 6.3125 -5.03125 C 6 -5.3125 5.554688 -5.453125 4.984375 -5.453125 C 4.671875 -5.453125 4.398438 -5.378906 4.171875 -5.234375 C 3.953125 -5.097656 3.796875 -4.929688 3.703125 -4.734375 C 3.609375 -4.546875 3.539062 -4.382812 3.5 -4.25 C 3.46875 -4.113281 3.453125 -4.007812 3.453125 -3.9375 L 3.453125 0 Z M 0.875 0 "/></g></g></g><g fill="#000000" fill-opacity="1"><g transform="translate(31.986064, 37.978601)"><g><path d="M 0.34375 -28.828125 L 0.34375 -36.046875 L 25.6875 -36.046875 L 25.6875 -28.828125 L 17.125 -28.828125 L 17.125 0 L 8.90625 0 L 8.90625 -28.828125 Z M 0.34375 -28.828125 "/></g></g></g><g fill="#7ed957" fill-opacity="1"><g transform="translate(53.284733, 23.679688)"><g><path d="M 10.8125 0 L 10.234375 -7.125 L 10.171875 -7.125 L 7.703125 -0.078125 L 6.078125 -0.078125 L 3.609375 -7.125 L 3.53125 -7.125 L 2.96875 0 L 0.234375 0 L 1.3125 -12.015625 L 4.21875 -12.015625 L 6.890625 -5.078125 L 9.546875 -12.015625 L 12.46875 -12.015625 L 13.546875 0 Z M 10.8125 0 "/></g></g></g><g fill="#7ed957" fill-opacity="1"><g transform="translate(67.055807, 23.679688)"><g><path d="M 1.578125 -0.890625 C 0.742188 -1.628906 0.328125 -2.578125 0.328125 -3.734375 C 0.328125 -4.890625 0.757812 -5.835938 1.625 -6.578125 C 2.488281 -7.316406 3.554688 -7.6875 4.828125 -7.6875 C 6.085938 -7.6875 7.144531 -7.3125 8 -6.5625 C 8.863281 -5.820312 9.296875 -4.878906 9.296875 -3.734375 C 9.296875 -2.585938 8.875 -1.640625 8.03125 -0.890625 C 7.1875 -0.148438 6.117188 0.21875 4.828125 0.21875 C 3.492188 0.21875 2.410156 -0.148438 1.578125 -0.890625 Z M 3.578125 -4.984375 C 3.242188 -4.660156 3.078125 -4.238281 3.078125 -3.71875 C 3.078125 -3.207031 3.234375 -2.789062 3.546875 -2.46875 C 3.867188 -2.144531 4.289062 -1.984375 4.8125 -1.984375 C 5.320312 -1.984375 5.738281 -2.144531 6.0625 -2.46875 C 6.382812 -2.800781 6.546875 -3.222656 6.546875 -3.734375 C 6.546875 -4.242188 6.378906 -4.660156 6.046875 -4.984375 C 5.710938 -5.316406 5.300781 -5.484375 4.8125 -5.484375 C 4.320312 -5.484375 3.910156 -5.316406 3.578125 -4.984375 Z M 3.578125 -4.984375 "/></g></g></g><g fill="#7ed957" fill-opacity="1"><g transform="translate(76.678094, 23.679688)"><g><path d="M 0.875 0 L 0.875 -7.46875 L 3.453125 -7.46875 L 3.453125 -6.6875 L 3.484375 -6.6875 C 4.148438 -7.351562 4.863281 -7.6875 5.625 -7.6875 C 5.988281 -7.6875 6.351562 -7.632812 6.71875 -7.53125 C 7.082031 -7.4375 7.429688 -7.285156 7.765625 -7.078125 C 8.097656 -6.878906 8.367188 -6.59375 8.578125 -6.21875 C 8.785156 -5.851562 8.890625 -5.421875 8.890625 -4.921875 L 8.890625 0 L 6.3125 0 L 6.3125 -4.21875 C 6.3125 -4.613281 6.1875 -4.953125 5.9375 -5.234375 C 5.695312 -5.523438 5.378906 -5.671875 4.984375 -5.671875 C 4.585938 -5.671875 4.234375 -5.519531 3.921875 -5.21875 C 3.609375 -4.925781 3.453125 -4.59375 3.453125 -4.21875 L 3.453125 0 Z M 0.875 0 "/></g></g></g><g fill="#7ed957" fill-opacity="1"><g transform="translate(86.300381, 23.679688)"><g><path d="M 8.4375 -3.375 L 3.015625 -3.375 C 3.015625 -2.851562 3.179688 -2.460938 3.515625 -2.203125 C 3.859375 -1.953125 4.226562 -1.828125 4.625 -1.828125 C 5.039062 -1.828125 5.367188 -1.882812 5.609375 -2 C 5.859375 -2.113281 6.140625 -2.335938 6.453125 -2.671875 L 8.3125 -1.734375 C 7.539062 -0.429688 6.25 0.21875 4.4375 0.21875 C 3.3125 0.21875 2.34375 -0.164062 1.53125 -0.9375 C 0.726562 -1.707031 0.328125 -2.632812 0.328125 -3.71875 C 0.328125 -4.8125 0.726562 -5.742188 1.53125 -6.515625 C 2.34375 -7.296875 3.3125 -7.6875 4.4375 -7.6875 C 5.625 -7.6875 6.585938 -7.34375 7.328125 -6.65625 C 8.078125 -5.976562 8.453125 -5.003906 8.453125 -3.734375 C 8.453125 -3.554688 8.445312 -3.4375 8.4375 -3.375 Z M 3.09375 -4.8125 L 5.921875 -4.8125 C 5.867188 -5.195312 5.71875 -5.492188 5.46875 -5.703125 C 5.21875 -5.910156 4.898438 -6.015625 4.515625 -6.015625 C 4.085938 -6.015625 3.742188 -5.898438 3.484375 -5.671875 C 3.234375 -5.453125 3.101562 -5.164062 3.09375 -4.8125 Z M 3.09375 -4.8125 "/></g></g></g><g fill="#7ed957" fill-opacity="1"><g transform="translate(95.078349, 23.679688)"><g><path d="M 6.53125 -7.46875 L 9.515625 -7.46875 L 3.640625 3.78125 L 0.671875 3.78125 L 3.25 -1.171875 L -0.296875 -7.46875 L 2.671875 -7.46875 L 4.765625 -3.640625 Z M 6.53125 -7.46875 "/></g></g></g></svg>